<?xml version="1.0" encoding="UTF-8"?><svg id="uuid-25482bd3-78bd-468e-967f-926c9ce868bf" xmlns="http://www.w3.org/2000/svg" xmlns:xlink="http://www.w3.org/1999/xlink" viewBox="0 0 611.84 340.9"><defs><style>.uuid-99eb3d37-0c53-4b9a-b1e0-c7dccc419ad8{clip-path:url(#uuid-b5299f3f-b08a-4ad0-901d-ac43a26b6e0d);}.uuid-a88c0ab7-997b-4782-a688-cb162eee71fc{fill:#44278f;}.uuid-d35471d9-b11e-4849-8af9-45b769a3f08d{fill:none;}.uuid-de65ba7e-034c-4b40-93f1-53fefa47a386{fill:#5a34b3;}.uuid-83353bab-7c00-47cb-9795-da24412a9e1d{fill:#5531ab;}.uuid-5595dcb3-b73b-4cd8-b404-5afbe167c611{fill:#00a0f2;}.uuid-0f769285-ce7a-4ef2-a3d7-93eec9772680{fill:#03080c;}.uuid-e8ad1660-6f12-457a-bdde-a2a067988ec6{fill:#07121c;}.uuid-2f6a4339-0f3f-4838-a4a6-328303f43d58{fill:#5733af;}.uuid-9bcb57de-a833-448b-b023-571933c4f963{fill:#0c1c2c;}.uuid-c604fd02-e04f-4120-ae19-ca3c5b7c73f0{fill:#4c2c9c;}.uuid-3c82d769-47a2-4577-9291-8c252bd54963{fill:#5532ac;}.uuid-d9bcf89e-888e-4366-8fb0-2e8f4be0792b{fill:#42278d;}.uuid-c28c1459-bfbe-4b47-8378-cebd36dd4213{fill:#00aef4;}.uuid-6d9c274c-20e6-4237-ae08-12962ce596dc{fill:#00a5f3;}.uuid-0580ad9e-3685-4e48-8d8a-d999a06fb35f{fill:#04090d;}.uuid-1ae1a904-d043-49e0-ac7a-dc05c898a477{fill:#020609;}.uuid-5b4d66dd-e6e6-4ac0-9981-b49641526679{fill:#5833b0;}.uuid-cfb8b61d-63d1-46c6-a6ab-efe6fb7c0cf8{fill:#0097f1;}.uuid-94aed4e9-b325-4fce-b0cd-c38fe1bb319c{fill:#009cf2;}.uuid-7d8219c4-8d8c-457c-8613-a39950b59d94{fill:#08141f;}.uuid-998401ea-ec72-4577-a6a1-4aeacfc21ef0{fill:#00aff5;}.uuid-d5aa7fa3-6bd2-4b77-8e2c-06e331239d0d{fill:#5834b1;}.uuid-7d1b46ba-891f-4e24-a956-b18d5b606576{fill:#5431aa;}.uuid-aaaf074f-fa9c-404d-b3c0-7e4966e1fec3{fill:#5632ad;}.uuid-5816e03a-0e1a-4c0a-9538-f1460a9cb70a{fill:#0c1c2b;}.uuid-e4a4e6a9-e833-4877-b077-af0b4169f544{fill:#653cc6;}.uuid-9a5421f8-90b3-4beb-9cbb-784696dd47fb{fill:#4d2d9e;}.uuid-bece95cc-231f-4a12-bfa9-3d0f4fc95c80{fill:#452891;}.uuid-65246233-2eb8-4398-8401-031b6b37fad5{fill:#482a96;}.uuid-2ce95890-6ec9-4491-91a6-70859338d42b{fill:#643ac3;}.uuid-292592dc-af1d-4758-852d-22c9097f36f5{fill:#009ef2;}.uuid-5ad581e1-4183-467f-b1cb-1eb3253791fd{fill:#091622;}.uuid-231e7874-a14f-4b9f-93dd-8032cb2ea8a3{fill:#07101a;}.uuid-b722da6a-5b3d-4ece-b8e4-ec9f68bc9831{fill:#5633ae;}.uuid-9715d44a-72f7-436f-bab6-29af1a183a72{fill:#5331a9;}.uuid-2faec3ff-2f8c-445f-9f83-b29e28fcbaeb{fill:#00adf4;}.uuid-8bfffa59-8f0c-4c97-b1e3-8ce13f2f811e{fill:#5c36b7;}.uuid-09fe4150-aa40-4a87-9fe6-b837bc52bc48{fill:#643bc4;}.uuid-6da80af4-e1ba-46ef-9ba5-a0f0fb5ee855{fill:#060f17;}.uuid-a012911f-f68d-407f-809f-6da620443489{fill:#5d36b8;}.uuid-825ecedd-c3ac-477f-9d15-506cef30e9e5{fill:#4c2d9d;}.uuid-e544d604-b8cb-4ceb-9b4b-8f54b1eabdab{fill:#4b2b9a;}.uuid-f73e90ad-1edc-408e-865c-4b88703327d4{fill:#101a26;}.uuid-94e366c7-a66e-4cbd-91b0-6418ac78f6dc{fill:#00abf4;}.uuid-e9975f7e-0544-4a90-8df1-6c6cad45fd5e{fill:#010102;}.uuid-d08719aa-5be0-46ef-945b-8c16dc096e31{fill:#4b2c9b;}.uuid-9711b852-43b3-4150-b6e7-f2f68fb367b7{fill:#0094f0;}.uuid-5d2b6b7a-ee08-4dfd-97dd-76a2609f31ed{fill:#00a7f3;}.uuid-5f043d87-8937-48d2-a045-d5d07d21c554{fill:#020508;}.uuid-fa974dea-9876-4be5-bf69-212afc10ef75{fill:#5b30b1;}.uuid-609e02c3-bfb1-4706-bb53-da07ca622777{fill:#000101;}.uuid-13b69499-483a-4dc6-add5-6f87930d3a73{fill:#00acf4;}.uuid-07437c46-d93c-4f14-a764-4912e20bea13{fill:#0b1a29;}.uuid-f18b7997-2d98-4396-af5c-9674bd314f71{fill:#41258a;}.uuid-9bdf7a95-9f64-4567-83cd-dce54851c865{fill:#00b1f5;}.uuid-4776539c-551c-4908-a871-a8cbb24e5095{fill:#492b98;}.uuid-e1771a4a-4c3e-4b9c-8d4d-d7d79b850ac5{fill:#5f37bb;}.uuid-d2232c20-76e2-4db6-af5a-b6133ae1a29b{fill:#0d1f30;}.uuid-dacb09d5-bfaf-4a96-8fd9-56295f89781e{fill:#0c1d2d;}.uuid-dbe9d63d-eadd-41ac-9d99-8186e339ba6a{fill:#512fa4;}.uuid-bb286ed5-7345-4644-bdd1-351d1fac5912{fill:#0096f1;}.uuid-6c6928d0-5b2d-4b29-8200-f50f69f508fb{fill:#00b0f5;}.uuid-55108e0e-312c-42ea-ba4d-ced0203b6fca{fill:#0d1e2f;}.uuid-6ddf7b7a-3626-4ef6-a193-04426f0e162f{fill:#442890;}.uuid-7c99ac99-547b-4373-912d-cbe8734a3379{fill:#0b1a28;}.uuid-f9cdf790-0a60-4395-aebe-38a448992b15{fill:#41268b;}.uuid-f342b52d-3473-4e74-86ba-1d4ea93022bb{fill:#060d14;}.uuid-e087037a-1608-432e-ae42-b5c6dc162c2a{fill:#07111b;}.uuid-e3136f2a-1a6f-4063-98d9-cbe12c81be0a{fill:#5d37b9;}.uuid-b89e5340-d2a7-4c4c-9cb7-08e978eedde8{fill:#0093f0;}.uuid-209c880b-87de-48d6-a39d-561b3572712d{fill:#4a2b99;}.uuid-329feac5-c42b-4c46-8844-d6fdf4ad1dd4{fill:#060f16;}.uuid-a061b247-3b59-495f-8647-3f096c2925c4{fill:#00a1f2;}.uuid-cdf2421a-17df-45c2-9016-5fe85e3dc5a8{fill:#462993;}.uuid-8f1185ff-4a7c-4be6-a8ec-60186b39ca7d{fill:#492a97;}.uuid-7c0c0a06-c11b-4a1c-9bde-72633b2fb955{clip-path:url(#uuid-40c4f855-fbcc-4a1f-9a93-190a51b06d5d);}.uuid-d526fcf6-076b-417f-957d-2a0673d24ef2{fill:#050d13;}.uuid-e56d0c14-30ef-4208-b8a3-2d2483b1aac8{fill:#0a1826;}.uuid-d683c027-6426-4b21-ac26-629700a3652a{fill:#6039be;}.uuid-c623b687-7aaa-4f68-8a4a-717db9877d39{fill:#03070a;}.uuid-3b330940-2db5-46fb-a1ab-2a68677545bb{fill:#4e2d9f;}.uuid-3e50375b-95e5-4323-be1f-762069f919fa{fill:#050b11;}.uuid-5acc3c49-a184-4753-8c1f-2abd313e261c{fill:#663cc7;}.uuid-341af395-4649-427d-9bb2-28518e276c31{fill:#502ea2;}.uuid-93cbfad7-dad1-4c5f-91b1-4b611e2a26dc{fill:#472994;}.uuid-290daa0b-0a6b-4cd3-9a1a-e49a54bbc878{fill:#5b36b6;}.uuid-758b6593-1bbd-49d8-9e97-bb21b8bf319c{fill:#4e2ea0;}.uuid-9d591d63-82c0-4e31-8b79-981ba66c53cc{fill:#00aaf4;}.uuid-92067689-d7f3-481f-a943-dc7be59e65d3{fill:#040b10;}.uuid-8ddc08c9-2e1e-4863-b58f-99a799040458{fill:#653bc5;}.uuid-0ee2860d-c955-4d9c-aab4-169323798799{fill:#00b2f5;}.uuid-dfe4b3f6-ebc8-4270-98a2-2181f0b08695{fill:#08131e;}.uuid-42419f3b-f48e-4215-92f2-64bce397087c{fill:#050c12;}.uuid-fd0eef6e-6171-4ef7-8cce-e6b7d0a07f79{fill:#43278e;}.uuid-7697ef65-3190-4a8c-bed6-292b7cd1b209{fill:#402589;}.uuid-afd43b24-f9d2-4e4c-8946-6658b0c20242{fill:#5a35b4;}.uuid-7402dba4-59a9-4efb-ae24-0a3a88721e3f{fill:#071019;}.uuid-bc1d5ff0-e174-4c4d-a5f1-cdd7201a968d{fill:#5330a7;}.uuid-3fa8253a-eb45-4336-82eb-7d2d3e039cdb{fill:#633ac2;}.uuid-7b63aea2-f3a9-4bcf-b23d-09038acbe836{fill:#0092f0;}.uuid-53672e84-604f-4120-88a4-06a8746cdf13{fill:#009ff2;}.uuid-4cd9beba-9877-4b37-b527-dcc5e80be485{fill:#060e15;}.uuid-afd761bd-14e9-48db-9416-fe7b2224c7f4{clip-path:url(#uuid-0a2ced93-6a8a-4d98-8e77-d2d5c03c8173);}.uuid-42a79811-bed2-4abb-9318-efa03adda021{fill:#fbfbf9;}.uuid-b5c135fd-59cd-464f-b9e4-a166355d1ea6{fill:#462892;}.uuid-19ae3c0e-5493-4f71-9979-9e47ae10b212{fill:#6038bd;}.uuid-afb64337-a4fe-4a24-bd9d-4ccbdf8cc4c9{fill:#091420;}.uuid-c028a14a-0374-464e-91c2-4e2627255a02{fill:#502fa3;}.uuid-6138c46b-f019-46c3-9ddf-2f757e73e60a{fill:#6239c0;}.uuid-7c1dc3de-84e1-42b5-ab5c-84dfc3e5effe{fill:#5e37ba;}.uuid-f65e0b14-d028-4325-abf1-b206f6044e5c{fill:#010203;}.uuid-34267fe9-22bd-4229-9bdf-8e0b65b82805{fill:#00a6f3;}.uuid-27c18604-5ce1-4e15-8ef4-c266dcc759b5{fill:#0b1927;}.uuid-784ccfaf-11a4-4a11-978e-ea51f6fc84a4{fill:#020406;}.uuid-417b2dd8-9846-44e7-bec6-90be1e1a714b{fill:#5130a5;}.uuid-677148f7-6f92-4c37-a505-7adbaf1a495a{fill:#091521;}.uuid-4500be4b-7e24-4d27-a405-d95e1bb6417c{fill:#5230a6;}.uuid-b558f111-f53f-4296-9a42-10c23c2780a4{fill:#42268c;}.uuid-cdce1937-7d0e-471a-8505-697fcaa69c70{fill:#00a3f3;}.uuid-2dfac435-0b51-430e-897e-c6fbd423e97e{fill:#6139bf;}.uuid-00e3caa7-2a76-4f3f-bd49-0cc61c1456be{fill:#4f2ea1;}.uuid-ec2c8886-86eb-46b0-97dc-5354dfa91a44{fill:#00a8f3;}.uuid-e5682aea-6eb2-4411-8679-a4d3a2107920{fill:#009bf1;}.uuid-9018a186-2969-4cd8-9c1d-fcc4986de5dc{fill:#0a1825;}.uuid-9fae63cc-fea5-4328-8523-cef6bf115c34{fill:#08121d;}.uuid-32702d64-314a-4a5f-9a80-f0f8e9277180{fill:#623ac1;}.uuid-48726ed0-882d-43ce-9141-0518038d60d5{fill:#0095f0;}.uuid-472111bf-f85e-4a50-9746-812a6fbe58a0{fill:#00a9f4;}.uuid-459254b7-f3a0-460c-8c08-f1ec009ebb0a{fill:#00a4f3;}.uuid-e0806e6f-6b07-42ff-a784-129dfaa20ec6{fill:#0098f1;}.uuid-b1dcba66-a554-4623-a04c-79e592a67987{fill:#5f38bc;}.uuid-46e842d1-f95f-4882-b50d-08c605e5f8a4{fill:#0b1b2a;}.uuid-adb0f387-1f26-486b-8054-26002c981b17{fill:#009df2;}.uuid-992ac215-2b3b-42c7-86b8-13711701e95a{fill:#0c1e2e;}.uuid-c627c441-3a17-4250-8755-3cb95a726c14{fill:#03070b;}.uuid-c0849afc-4bf0-48ae-97f2-34550080cf3e{fill:#020507;}.uuid-4afb9bb8-e3b9-4e5c-ae56-d64b90fc505e{fill:#472a95;}.uuid-b18526f2-02c0-482b-b1dc-b96a98191597{fill:#010305;}.uuid-9549f6eb-cb76-44a0-b701-3cac2d4c3000{fill:#0a1724;}.uuid-56f968c1-ea02-4ab9-a9a8-a7db8e7562db{fill:#5934b2;}.uuid-e27c3f0d-0dc8-4bd4-9a3d-2394c6007cfc{fill:#040a0f;}.uuid-5adf6323-41e1-4beb-9556-3e86384cf8d0{fill:#009af1;}.uuid-d897b2b2-4c81-41d6-b9fd-022c99a5bd9a{fill:#091623;}.uuid-8cc954dd-32b2-4c88-8650-aa2d0a9b8645{fill:#5b35b5;}.uuid-9fe18248-631c-4ff5-853d-797fb16e8ca0{fill:#04090e;}.uuid-1dc2eca2-67e8-4c94-9a2a-72df8e2dcfb1{fill:#02a3f3;}.uuid-f7df3171-661c-43dc-a0f4-d2263b9bf45e{fill:#2e2560;}.uuid-aa473eb8-2f7f-4760-a7e0-816f2a787d0e{fill:#010304;}.uuid-72d61d1d-da07-4289-a44b-89fb00f2205a{fill:#0099f1;}</style><clipPath id="uuid-b5299f3f-b08a-4ad0-901d-ac43a26b6e0d"><path class="uuid-d35471d9-b11e-4849-8af9-45b769a3f08d" d="M316.31,239.74c.13-1.43.4-4.62.67-6.13,0,0,1.57-.47,1.58-.47.57-.57,1.25-1.6,1.7-2.24.19,7.75.26,15.49.24,23.24,0,2.93.09,8.51-.23,11.32.2,2.02.02,7.55,0,9.83-4.27,4.27-8.86,8.74-12.9,13.19.37,7.93.08,17.31-.04,25.28,12.07,8.58-1.95,17.91-7.59,10.25-2.45-3.34-.21-7.75,3.62-9.8l-.09-27.64c4.4-4.32,8.74-8.69,13.04-13.11-.03-4.34-.02-8.68.03-13.02-.21-6.6-.04-14.07-.02-20.7Z"/></clipPath><clipPath id="uuid-0a2ced93-6a8a-4d98-8e77-d2d5c03c8173"><path class="uuid-d35471d9-b11e-4849-8af9-45b769a3f08d" d="M204.73,82.5c8.58,0,17.52.12,26.06-.04l29.58,29.7c3.84,3.85,12.98,12.55,15.98,16.56l-.35,1.69c-.34-1.11-.4-1.65-1.36-2.36-1.49.27-1.53.69-2.86,1.87-12.8-14-29.29-29.94-42.81-43.42-8.01-.11-16.19-.03-24.22-.03.4-1.3.39-2.68-.03-3.97Z"/></clipPath><clipPath id="uuid-40c4f855-fbcc-4a1f-9a93-190a51b06d5d"><path class="uuid-d35471d9-b11e-4849-8af9-45b769a3f08d" d="M270.33,74.59h13.01c.29,5.03.23,12.03.07,17.05l-13.13.13c-.06-5.73-.04-11.46.05-17.18Z"/></clipPath></defs><g id="uuid-f9fd6933-230e-4109-a66f-89ceea6f6bd8"><path class="uuid-f73e90ad-1edc-408e-865c-4b88703327d4" d="M330.19,209.04c.55-.02,1.11-.03,1.66-.03,3.19,0,1.84,1.96,3.24,3.56,2.29,2.61,5.96,5.97,8.46,8.51l36.4,36.82,24.59.03c2.97-5.36,8.76-6.33,11.77-2.13,4.82,6.69-5.15,16.8-11.88,6.2-8.7-.03-17.41,0-26.12.09l-39.25-39.74c-1.41-1.44-3.41-3.21-4.91-4.62.11,4.66-.04,9.68-.11,14.36,8.83,8.27,23.35,22.97,31.54,31.89.14,9.11.14,18.22,0,27.33,4.69,2.53,7.08,8.11,2.05,11.64-1.69,1.17-3.78,1.61-5.8,1.22-3.79-.77-5.15-4.3-4.54-7.88.41-2.33,2.4-3.81,4.27-5.02.04-8.56.03-17.12-.03-25.68-10.17-10.57-20.97-21.2-31.37-31.58-.35-7-.17-17.95.03-24.96Z"/><path class="uuid-42a79811-bed2-4abb-9318-efa03adda021" d="M409.59,257.26c.97-.52,2.14-.47,3.06.13.92.6,1.43,1.65,1.34,2.75-.09,1.09-.77,2.05-1.77,2.49-1.47.65-3.19.02-3.89-1.42-.7-1.44-.15-3.18,1.26-3.94Z"/><path class="uuid-42a79811-bed2-4abb-9318-efa03adda021" d="M362.52,295.12c.97-.44,2.1-.33,2.96.3.86.63,1.32,1.67,1.2,2.73s-.8,1.97-1.78,2.39c-1.49.64-3.22-.04-3.88-1.53-.65-1.49.01-3.22,1.49-3.89Z"/><path class="uuid-f73e90ad-1edc-408e-865c-4b88703327d4" d="M334.03,13.14c-3.98-2.98-7.08-8.12-1.95-11.77,1.58-1.14,3.56-1.59,5.48-1.26,1.58.27,2.97,1.19,3.85,2.52,2.87,4.33.58,7.62-3.25,9.97-.13,4.28-.02,8.52-.19,12.86.29,13.38-.59,31.94.26,44.6-9.35,9.66-22.26,21.94-30.81,31.64.03,5.29.48,23.76-.19,28.08-1.03.62-1.97.48-3.22.47l-.59-.35c-.68-2.8-.23-25.71-.09-29.74,9.12-10.08,20.96-21.97,30.69-31.62,0-6.22-.3-15.44.04-21.4-.55-9.59-.08-24.11-.03-34.01Z"/><path class="uuid-fa974dea-9876-4be5-bf69-212afc10ef75" d="M334.03,13.14c-3.98-2.98-7.08-8.12-1.95-11.77,1.58-1.14,3.56-1.59,5.48-1.26,1.58.27,2.97,1.19,3.85,2.52,2.87,4.33.58,7.62-3.25,9.97-.13,4.28-.02,8.52-.19,12.86-.2-.88-.33-1.52-.63-2.37l-2.14.19c-1.73,2.94-.65,19.06-1.13,23.87-.55-9.59-.08-24.11-.03-34.01Z"/><path class="uuid-42a79811-bed2-4abb-9318-efa03adda021" d="M335.28,3.49c1.47-.36,2.98.44,3.51,1.86.52,1.42-.11,3.01-1.46,3.69-1.02.51-2.25.39-3.15-.31-.9-.7-1.33-1.85-1.09-2.97.24-1.12,1.09-2,2.19-2.27Z"/><path class="uuid-fa974dea-9876-4be5-bf69-212afc10ef75" d="M268.09,209.05l5.2.09c-2.13,2.28-4.65,4.72-6.9,6.9-15.36,14.86-29.95,31.17-45.54,45.72-11.82.43-26.09.05-38.15.06-3.19,4.8-6.28,6.11-11.31,2.77-1.45-1.78-2.27-3.7-1.82-6.05.33-1.69,1.33-3.16,2.78-4.09,4.34-2.81,7.79-.4,10.26,3.37l36.5.03c16.27-15.44,32.38-33.75,49-48.79Z"/><path class="uuid-42a79811-bed2-4abb-9318-efa03adda021" d="M175.35,256.92c1.59-.4,3.21.54,3.65,2.12.44,1.58-.46,3.22-2.03,3.7-1.05.32-2.19.05-2.98-.72-.79-.76-1.1-1.89-.82-2.96.28-1.06,1.12-1.88,2.19-2.15Z"/><path class="uuid-f73e90ad-1edc-408e-865c-4b88703327d4" d="M435.23,114.11c4.17.07,7.93,2.34,7.55,6.96-.17,1.9-1.1,3.66-2.59,4.86-4.24,3.36-7.9.41-10.51-3.12-9.51-.09-19.02.08-28.56-.06l-.58,4.2c-4.91-.15-10.09.5-14.78-.22-2.49-.39-3.29-1.89-4.59-3.87l-7.9-.11-4.37,4.2-3.33,3.3-5.17-.05c3.62-3.89,7.34-7.68,11.18-11.36h9.65c2.77-6.15,6.99-4.41,12.74-4.49,2.05-.03,4.23.16,6.29.24l.79,4.19c8.87.02,19.66-.24,28.38.25,2.03-2.96,2.4-3.77,5.8-4.91Z"/><path class="uuid-42a79811-bed2-4abb-9318-efa03adda021" d="M434.67,118.17c.97-.55,2.17-.53,3.11.06.95.59,1.49,1.66,1.42,2.77-.07,1.11-.76,2.1-1.77,2.56-1.48.67-3.22.06-3.96-1.38s-.21-3.21,1.2-4.01Z"/><path class="uuid-1dc2eca2-67e8-4c94-9a2a-72df8e2dcfb1" d="M275.66,33.17c-3.2-2.26-5.13-4.13-4.3-8.32,1.69-8.52,14.72-4.88,12.94,2.96-.53,2.36-2.37,3.9-4.39,5.05-.31,6.59-.26,14.8-.07,21.39,4.03,4.2,8.2,8.16,12.08,12.53.94,1.56,1.22,1.85,2.53,3.13-.64,1.79-.07,5.61-.28,7.18-.83,6.25,1.44,49.65-.52,53.33l-.96.26c-1.26-.36-2.58-1.54-2.55-2.93.12-5.71.11-11.42.12-17.14l-.06-39.8c-3.63-4.17-11.74-11.15-14.59-15.15l.04-22.5Z"/><path class="uuid-42a79811-bed2-4abb-9318-efa03adda021" d="M276.98,23.6c1.48-.41,3.03.39,3.56,1.83.53,1.44-.14,3.05-1.53,3.69-1.01.47-2.2.33-3.07-.36-.87-.69-1.28-1.81-1.06-2.9.22-1.09,1.04-1.96,2.11-2.26Z"/><path class="uuid-1dc2eca2-67e8-4c94-9a2a-72df8e2dcfb1" d="M298.51,243.93c1.02.84,1.28,2.72,1.71,4.2l-22.8,22.99c.38,18.63.06,37.85.17,56.56,6.39,4.03,6.04,11.11-1.49,13.21-.61-.08-1.21-.2-1.8-.35-6.66-1.69-7.34-9.16-.88-12.76l-.04-36.59c-.02-7-.22-14.89.14-21.82,6.35-7.28,17.98-18.34,25.01-25.45Z"/><path class="uuid-42a79811-bed2-4abb-9318-efa03adda021" d="M274.53,331.36c1.52-.54,3.18.23,3.75,1.74.57,1.5-.17,3.19-1.66,3.79-.99.4-2.13.23-2.96-.44-.83-.67-1.24-1.74-1.06-2.8.18-1.06.92-1.93,1.92-2.29Z"/><path class="uuid-fa974dea-9876-4be5-bf69-212afc10ef75" d="M427.09,93.16c4.53-.25,8.93,1.41,8.27,6.86-.22,1.99-1.25,3.8-2.85,5.01-4.19,3.1-7.77.08-10.06-3.48-15.6-.21-32.29-.13-47.89.06-7.55,6.85-17.36,17.3-24.73,24.69l-4.48,4.41c-1.46-.36-3.37-.57-4.89-.77,10.79-10.39,21.42-22.32,32.36-32.36,14.75-.62,34.44-.03,49.6-.03,1.42-2.37,2.3-3.03,4.68-4.38Z"/><path class="uuid-42a79811-bed2-4abb-9318-efa03adda021" d="M427.64,96.87c.98-.48,2.15-.39,3.05.23.9.62,1.4,1.68,1.3,2.77-.09,1.09-.77,2.04-1.77,2.5-1.51.69-3.29.03-4-1.47-.71-1.5-.08-3.29,1.41-4.02Z"/><path class="uuid-f73e90ad-1edc-408e-865c-4b88703327d4" d="M344.64,209.24l5.19-.22c11.3,10.76,23.78,23.91,34.85,35.14,8.01.6,24.37.09,32.75-.07.66-1.16,1-2.05,2.08-2.91,1.49-1.18,3.39-1.7,5.28-1.46,1.74.22,3.31,1.15,4.33,2.57,1.4,1.95,1.4,3.67,1.06,5.91-2.42,6.52-9.6,6.21-13.01.14-11.07-.38-23.14-.07-34.27,0-8.13-8.39-16.34-16.71-24.62-24.95-2.58-2.57-12.07-11.57-13.64-14.15Z"/><path class="uuid-42a79811-bed2-4abb-9318-efa03adda021" d="M422.97,243.53c1.51-.44,3.09.41,3.58,1.9.48,1.49-.3,3.11-1.78,3.64-1,.36-2.12.15-2.92-.55-.8-.7-1.15-1.79-.92-2.83.23-1.04,1.01-1.87,2.04-2.16Z"/><g class="uuid-99eb3d37-0c53-4b9a-b1e0-c7dccc419ad8"><polygon points="297.28 314.11 302.62 331.68 297.28 331.68 297.28 314.11"/><polygon points="297.28 311.19 303.51 331.68 302.62 331.68 297.28 314.11 297.28 311.19"/><polygon class="uuid-609e02c3-bfb1-4706-bb53-da07ca622777" points="297.28 308.26 304.4 331.68 303.51 331.68 297.28 311.19 297.28 308.26"/><polygon class="uuid-e9975f7e-0544-4a90-8df1-6c6cad45fd5e" points="297.28 305.33 305.29 331.68 304.4 331.68 297.28 308.26 297.28 305.33"/><polygon class="uuid-f65e0b14-d028-4325-abf1-b206f6044e5c" points="297.28 302.41 306.18 331.68 305.29 331.68 297.28 305.33 297.28 302.41"/><polygon class="uuid-aa473eb8-2f7f-4760-a7e0-816f2a787d0e" points="297.28 299.48 307.07 331.68 306.18 331.68 297.28 302.41 297.28 299.48"/><polygon class="uuid-b18526f2-02c0-482b-b1dc-b96a98191597" points="297.28 296.55 307.96 331.68 307.07 331.68 297.28 299.48 297.28 296.55"/><polygon class="uuid-784ccfaf-11a4-4a11-978e-ea51f6fc84a4" points="297.28 293.63 308.78 331.47 308.08 331.68 307.96 331.68 297.28 296.55 297.28 293.63"/><polygon class="uuid-c0849afc-4bf0-48ae-97f2-34550080cf3e" points="297.28 290.7 309.6 331.22 308.78 331.47 297.28 293.63 297.28 290.7"/><polygon class="uuid-5f043d87-8937-48d2-a045-d5d07d21c554" points="297.28 287.77 310.41 330.97 309.6 331.22 297.28 290.7 297.28 287.77"/><polygon class="uuid-1ae1a904-d043-49e0-ac7a-dc05c898a477" points="297.28 284.85 311.22 330.72 310.41 330.97 297.28 287.77 297.28 284.85"/><polygon class="uuid-c623b687-7aaa-4f68-8a4a-717db9877d39" points="297.28 281.92 312.04 330.48 311.22 330.72 297.28 284.85 297.28 281.92"/><polygon class="uuid-c627c441-3a17-4250-8755-3cb95a726c14" points="297.28 279 312.85 330.23 312.04 330.48 297.28 281.92 297.28 279"/><polygon class="uuid-0f769285-ce7a-4ef2-a3d7-93eec9772680" points="297.28 276.07 313.67 329.98 312.85 330.23 297.28 279 297.28 276.07"/><polygon class="uuid-0580ad9e-3685-4e48-8d8a-d999a06fb35f" points="297.28 273.14 314.48 329.73 313.67 329.98 297.28 276.07 297.28 273.14"/><polygon class="uuid-9fe18248-631c-4ff5-853d-797fb16e8ca0" points="297.28 270.22 315.3 329.49 314.48 329.73 297.28 273.14 297.28 270.22"/><polygon class="uuid-e27c3f0d-0dc8-4bd4-9a3d-2394c6007cfc" points="297.28 267.29 316.11 329.24 315.3 329.49 297.28 270.22 297.28 267.29"/><polygon class="uuid-92067689-d7f3-481f-a943-dc7be59e65d3" points="297.28 264.36 316.92 328.99 316.11 329.24 297.28 267.29 297.28 264.36"/><polygon class="uuid-3e50375b-95e5-4323-be1f-762069f919fa" points="297.28 261.44 317.74 328.74 316.92 328.99 297.28 264.36 297.28 261.44"/><polygon class="uuid-42419f3b-f48e-4215-92f2-64bce397087c" points="297.28 258.51 318.55 328.5 317.74 328.74 297.28 261.44 297.28 258.51"/><polygon class="uuid-d526fcf6-076b-417f-957d-2a0673d24ef2" points="297.28 255.58 319.37 328.25 318.55 328.5 297.28 258.51 297.28 255.58"/><polygon class="uuid-f342b52d-3473-4e74-86ba-1d4ea93022bb" points="297.28 252.66 320.18 328 319.37 328.25 297.28 255.58 297.28 252.66"/><polygon class="uuid-4cd9beba-9877-4b37-b527-dcc5e80be485" points="297.28 249.73 320.59 326.41 320.59 327.88 320.18 328 297.28 252.66 297.28 249.73"/><polygon class="uuid-329feac5-c42b-4c46-8844-d6fdf4ad1dd4" points="297.28 246.8 320.59 323.48 320.59 326.41 297.28 249.73 297.28 246.8"/><polygon class="uuid-6da80af4-e1ba-46ef-9ba5-a0f0fb5ee855" points="297.28 243.88 320.59 320.55 320.59 323.48 297.28 246.8 297.28 243.88"/><polygon class="uuid-7402dba4-59a9-4efb-ae24-0a3a88721e3f" points="297.28 240.95 320.59 317.63 320.59 320.55 297.28 243.88 297.28 240.95"/><polygon class="uuid-231e7874-a14f-4b9f-93dd-8032cb2ea8a3" points="297.28 238.02 320.59 314.7 320.59 317.63 297.28 240.95 297.28 238.02"/><polygon class="uuid-e087037a-1608-432e-ae42-b5c6dc162c2a" points="297.28 237.06 297.82 236.89 320.59 311.77 320.59 314.7 297.28 238.02 297.28 237.06"/><polygon class="uuid-e8ad1660-6f12-457a-bdde-a2a067988ec6" points="297.82 236.89 298.64 236.64 320.59 308.85 320.59 311.77 297.82 236.89"/><polygon class="uuid-9fae63cc-fea5-4328-8523-cef6bf115c34" points="298.64 236.64 299.45 236.4 320.59 305.92 320.59 308.85 298.64 236.64"/><polygon class="uuid-dfe4b3f6-ebc8-4270-98a2-2181f0b08695" points="299.45 236.4 300.27 236.15 320.59 302.99 320.59 305.92 299.45 236.4"/><polygon class="uuid-7d8219c4-8d8c-457c-8613-a39950b59d94" points="300.27 236.15 301.08 235.9 320.59 300.07 320.59 302.99 300.27 236.15"/><polygon class="uuid-afb64337-a4fe-4a24-bd9d-4ccbdf8cc4c9" points="301.08 235.9 301.9 235.65 320.59 297.14 320.59 300.07 301.08 235.9"/><polygon class="uuid-677148f7-6f92-4c37-a505-7adbaf1a495a" points="301.9 235.65 302.71 235.41 320.59 294.21 320.59 297.14 301.9 235.65"/><polygon class="uuid-5ad581e1-4183-467f-b1cb-1eb3253791fd" points="302.71 235.41 303.53 235.16 320.59 291.29 320.59 294.21 302.71 235.41"/><polygon class="uuid-d897b2b2-4c81-41d6-b9fd-022c99a5bd9a" points="303.53 235.16 304.34 234.91 320.59 288.36 320.59 291.29 303.53 235.16"/><polygon class="uuid-9549f6eb-cb76-44a0-b701-3cac2d4c3000" points="304.34 234.91 305.15 234.66 320.59 285.43 320.59 288.36 304.34 234.91"/><polygon class="uuid-9018a186-2969-4cd8-9c1d-fcc4986de5dc" points="305.15 234.66 305.97 234.42 320.59 282.51 320.59 285.43 305.15 234.66"/><polygon class="uuid-e56d0c14-30ef-4208-b8a3-2d2483b1aac8" points="305.97 234.42 306.78 234.17 320.59 279.58 320.59 282.51 305.97 234.42"/><polygon class="uuid-27c18604-5ce1-4e15-8ef4-c266dcc759b5" points="306.78 234.17 307.6 233.92 320.59 276.65 320.59 279.58 306.78 234.17"/><polygon class="uuid-7c99ac99-547b-4373-912d-cbe8734a3379" points="307.6 233.92 308.41 233.67 320.59 273.73 320.59 276.65 307.6 233.92"/><polygon class="uuid-07437c46-d93c-4f14-a764-4912e20bea13" points="308.41 233.67 309.23 233.43 320.59 270.8 320.59 273.73 308.41 233.67"/><polygon class="uuid-46e842d1-f95f-4882-b50d-08c605e5f8a4" points="309.23 233.43 310.04 233.18 320.59 267.87 320.59 270.8 309.23 233.43"/><polygon class="uuid-5816e03a-0e1a-4c0a-9538-f1460a9cb70a" points="310.04 233.18 310.85 232.93 320.59 264.95 320.59 267.87 310.04 233.18"/><polygon class="uuid-9bcb57de-a833-448b-b023-571933c4f963" points="310.85 232.93 311.67 232.68 320.59 262.02 320.59 264.95 310.85 232.93"/><polygon class="uuid-dacb09d5-bfaf-4a96-8fd9-56295f89781e" points="311.67 232.68 312.48 232.44 320.59 259.09 320.59 262.02 311.67 232.68"/><polygon class="uuid-992ac215-2b3b-42c7-86b8-13711701e95a" points="312.48 232.44 313.3 232.19 320.59 256.17 320.59 259.09 312.48 232.44"/><polygon class="uuid-55108e0e-312c-42ea-ba4d-ced0203b6fca" points="313.3 232.19 314.11 231.94 320.59 253.24 320.59 256.17 313.3 232.19"/><polygon class="uuid-d2232c20-76e2-4db6-af5a-b6133ae1a29b" points="314.11 231.94 314.93 231.69 320.59 250.31 320.59 253.24 314.11 231.94"/><polygon class="uuid-d2232c20-76e2-4db6-af5a-b6133ae1a29b" points="314.93 231.69 317.55 230.9 320.59 230.9 320.59 250.31 314.93 231.69"/></g><path class="uuid-f7df3171-661c-43dc-a0f4-d2263b9bf45e" d="M316.31,239.74c.13-1.43.4-4.62.67-6.13,0,0,1.57-.47,1.58-.47.57-.57,1.25-1.6,1.7-2.24.19,7.75.26,15.49.24,23.24,0,2.93.09,8.51-.23,11.32-.42-3.64.1-17.7-.39-19.66l-.65.65c-.28.07-1.71.41-1.77.55-1.67,3.63-.11,9.2-1.12,13.44-.21-6.6-.04-14.07-.02-20.7Z"/><path class="uuid-42a79811-bed2-4abb-9318-efa03adda021" d="M304.96,317.52c1.56-.26,3.05.75,3.38,2.3.33,1.54-.61,3.08-2.13,3.49-1.06.28-2.18-.04-2.92-.84-.75-.8-.99-1.94-.64-2.97.35-1.03,1.24-1.79,2.32-1.97Z"/><path class="uuid-1dc2eca2-67e8-4c94-9a2a-72df8e2dcfb1" d="M178.92,93.21c4.62-.62,6.33.3,8.8,4.23,13.21-.06,26.42-.04,39.64.05,10.83,10.74,21.55,21.59,32.17,32.54-4.07.55-4.49,1.04-7.48-1.95-9.07-8.53-17.41-17.79-26.38-26.34-11.27-.55-26.42-.1-38.05-.09-2.02,2.74-3.83,4.97-7.73,4.25-1.74-.33-3.28-1.35-4.25-2.84-2.75-4.2-.46-7.59,3.29-9.85Z"/><path class="uuid-42a79811-bed2-4abb-9318-efa03adda021" d="M179.6,96.9c.94-.54,2.1-.53,3.03.03.93.56,1.49,1.57,1.46,2.65-.03,1.08-.64,2.07-1.6,2.57-1.45.76-3.24.22-4.02-1.21-.79-1.43-.28-3.23,1.14-4.04Z"/><path class="uuid-1dc2eca2-67e8-4c94-9a2a-72df8e2dcfb1" d="M215.4,114.1c3.89.11,5.55,1.52,7.56,4.69l8.03.03c3.51,2.95,7.86,7.78,11.09,11.18-1.69.05-3.33.28-5,.49-2.56-2.28-5.25-5.18-7.66-7.68l-6.29-.07c-4.01,5.65-9.6,6.91-13.43.31-3.85-.2-7.89-.15-11.76-.15-5.56-.11-11.12-.09-16.67.05-3.23,3.76-8.5,6.98-12.19,1.7-1.08-1.58-1.5-3.52-1.17-5.4,1.18-6.46,9.16-6.8,12.96-.5,9.05.01,19.43.26,28.39,0,2.29-2.89,2.61-3.66,6.14-4.67Z"/><path class="uuid-42a79811-bed2-4abb-9318-efa03adda021" d="M214.96,118.14c.99-.44,2.15-.31,3.02.34.87.65,1.33,1.72,1.19,2.8-.14,1.08-.85,2-1.86,2.41-1.52.62-3.26-.1-3.9-1.62-.64-1.51.05-3.26,1.55-3.93Z"/><path class="uuid-42a79811-bed2-4abb-9318-efa03adda021" d="M172.99,118.15c.97-.47,2.12-.37,2.99.26.88.62,1.35,1.67,1.23,2.74-.12,1.07-.81,1.99-1.81,2.4-1.48.61-3.18-.06-3.84-1.52-.65-1.46-.02-3.18,1.42-3.88Z"/><path class="uuid-f73e90ad-1edc-408e-865c-4b88703327d4" d="M231.33,67.86c-2.42.2-4.55.45-6.52-1.21-2.98-2.5-4.08-6.46-1.08-9.46,1.45-1.44,3.42-2.21,5.46-2.15,5.99.19,6.39,5.38,5.05,9.93,14.96,15.58,32.08,31.82,46.51,47.55l.03,17.7c-1.38.12-3.49.38-4.79.2l.35-1.69c.51-4.4.34-10.11.39-14.64l-45.41-46.23Z"/><path class="uuid-42a79811-bed2-4abb-9318-efa03adda021" d="M227.65,58.71c.98-.36,2.09-.16,2.88.53.79.68,1.15,1.74.94,2.77-.21,1.03-.96,1.86-1.96,2.17-1.5.47-3.1-.34-3.61-1.82-.51-1.49.27-3.11,1.75-3.65Z"/><path class="uuid-fa974dea-9876-4be5-bf69-212afc10ef75" d="M382.39,57.75c3.55.09,7.81,1.64,7.9,6.08.43,8.35-9.05,6.13-10.11,7.2-14.4,14.49-30.14,29.66-44.01,44.49-.12,3.54.07,8.01.13,11.61.06,1.19.15,1.69-.29,2.83-1.47.8-1.92.48-3.83.46l-.02-16.8c4.76-5.3,11.03-11.29,16.12-16.43l29.49-29.9c-1.52-4.99.23-7.42,4.62-9.54Z"/><path class="uuid-42a79811-bed2-4abb-9318-efa03adda021" d="M382.64,61.45c1.47-.57,3.12.09,3.79,1.51.67,1.42.13,3.12-1.23,3.89-.98.55-2.18.51-3.12-.11-.94-.62-1.45-1.7-1.33-2.82.12-1.12.85-2.07,1.9-2.48Z"/><path class="uuid-f73e90ad-1edc-408e-865c-4b88703327d4" d="M273.69,209c1.35,0,2.64-.18,3.68.56.49,3.1.17,15.94.01,19.64-1.96,2.58-9.01,9.37-11.66,12.03l-23.01,23.18c-2.51,2.54-6.07,5.98-8.26,8.88-.31.41.05,4.09-.21,5.11-.42,1.62-1,2.59-2.47,3.53-2.19,1.39-3.77,1.3-6.17.79-7.59-4.56-4.21-14.51,5.59-12.35,8.85-9.04,17.75-18.02,26.69-26.97,4.78-4.79,11.52-11.16,15.8-16.2-.2-5.38-.33-12.91,0-18.2Z"/><path class="uuid-42a79811-bed2-4abb-9318-efa03adda021" d="M227.06,273.76c1.01-.37,2.14-.17,2.95.53.81.7,1.19,1.78.97,2.84s-.98,1.91-2,2.23c-1.53.49-3.17-.34-3.69-1.86-.52-1.52.26-3.18,1.77-3.74Z"/><path class="uuid-1dc2eca2-67e8-4c94-9a2a-72df8e2dcfb1" d="M361.62,209.16c1.43-.14,3.48-.09,4.97-.1,7.52,7.03,14.85,15.08,22.38,22.33l34.73.02c1.77-2.87,3.43-4.76,7.1-4.7,1.66.02,3.23.72,4.36,1.94,1.79,1.96,1.89,3.84,1.79,6.33-3.61,6.32-9.08,6.5-13.07.44-12.07.19-24.59.02-36.69.02-3.23-2.97-25.12-24.49-25.57-26.27Z"/><path class="uuid-42a79811-bed2-4abb-9318-efa03adda021" d="M429.42,230.44c1.52-.55,3.2.24,3.76,1.75.56,1.52-.21,3.2-1.73,3.77-1.53.58-3.24-.2-3.8-1.74-.56-1.53.23-3.23,1.77-3.79Z"/><path class="uuid-fa974dea-9876-4be5-bf69-212afc10ef75" d="M247.7,208.91c1.25.02,3.17-.06,4.08.67-.53,1.57-20.56,21.55-23.37,24.27-11.97.76-28.32-.12-40.95.2-2.99,4.59-6.17,6.13-11.02,2.78-1.33-1.59-2.21-3.59-1.91-5.7.27-1.78,1.28-3.36,2.79-4.34,3.97-2.63,7.77-.53,10.02,3.13l39.16.07c7.16-6.82,14-14.17,21.19-21.07Z"/><path class="uuid-42a79811-bed2-4abb-9318-efa03adda021" d="M180.06,229.24c1.52-.49,3.16.31,3.71,1.82.55,1.51-.2,3.17-1.68,3.77-1.01.41-2.16.23-3.01-.46-.84-.69-1.24-1.79-1.04-2.86.2-1.07.98-1.94,2.01-2.28Z"/><path class="uuid-1dc2eca2-67e8-4c94-9a2a-72df8e2dcfb1" d="M216.94,209.38c17.24-1.51,4.68,23.44-4.37,8.86-10.44.14-20.88.16-31.32.07-1.69,2.14-2.61,3.03-4.96,4.37-4.58.39-8.98-1.88-8.38-7.07.24-1.92,1.23-3.66,2.76-4.84,4.17-3.2,7.94-.18,10.4,3.36,10.33-.07,20.67.12,31-.05,1.7-2.39,2.36-3.17,4.87-4.7Z"/><path class="uuid-42a79811-bed2-4abb-9318-efa03adda021" d="M173.13,213.51c1.01-.46,2.2-.32,3.07.36.88.69,1.3,1.8,1.09,2.89-.21,1.09-1,1.98-2.07,2.3-1.5.45-3.09-.34-3.64-1.8-.55-1.46.13-3.11,1.55-3.76Z"/><path class="uuid-1dc2eca2-67e8-4c94-9a2a-72df8e2dcfb1" d="M392.39,209.85c4.83-.51,6.43.19,9.04,4.33l28.79-.05c.73-1.25,1.54-2.47,2.75-3.29,1.46-1,3.27-1.36,5-1,1.85.39,3.46,1.53,4.44,3.14,2.55,4.19-.14,7.66-3.88,9.63-4.27.75-6.13-1.01-8.37-4.35l-28.57.11c-2.21,2.73-4.41,4.87-8.27,4.11-1.69-.35-3.16-1.36-4.11-2.8-.95-1.44-1.27-3.21-.9-4.89.56-2.59,1.99-3.64,4.08-4.94Z"/><path class="uuid-42a79811-bed2-4abb-9318-efa03adda021" d="M393.44,213.54c.95-.49,2.1-.42,2.99.17s1.4,1.63,1.32,2.7c-.08,1.07-.73,2.01-1.7,2.47-1.47.68-3.22.07-3.92-1.39-.71-1.45-.13-3.21,1.32-3.95Z"/><path class="uuid-42a79811-bed2-4abb-9318-efa03adda021" d="M435.29,213.53c.97-.52,2.14-.47,3.05.14.91.61,1.41,1.68,1.3,2.77-.11,1.09-.82,2.03-1.84,2.44-1.46.59-3.12-.07-3.79-1.49-.67-1.42-.11-3.12,1.27-3.86Z"/><g class="uuid-afd761bd-14e9-48db-9416-fe7b2224c7f4"><polygon class="uuid-7697ef65-3190-4a8c-bed6-292b7cd1b209" points="204.73 83.73 253.06 130.41 204.73 130.41 204.73 83.73"/><polygon class="uuid-7697ef65-3190-4a8c-bed6-292b7cd1b209" points="204.73 83.33 253.48 130.41 253.06 130.41 204.73 83.73 204.73 83.33"/><polygon class="uuid-f18b7997-2d98-4396-af5c-9674bd314f71" points="204.73 82.92 253.9 130.41 253.48 130.41 204.73 83.33 204.73 82.92"/><polygon class="uuid-f9cdf790-0a60-4395-aebe-38a448992b15" points="204.73 82.51 254.32 130.41 253.9 130.41 204.73 82.92 204.73 82.51"/><polygon class="uuid-b558f111-f53f-4296-9a42-10c23c2780a4" points="205.1 82.47 254.74 130.41 254.32 130.41 204.73 82.51 204.73 82.47 205.1 82.47"/><polygon class="uuid-d9bcf89e-888e-4366-8fb0-2e8f4be0792b" points="205.52 82.47 255.16 130.41 254.74 130.41 205.1 82.47 205.52 82.47"/><polygon class="uuid-fd0eef6e-6171-4ef7-8cce-e6b7d0a07f79" points="205.94 82.47 255.58 130.41 255.16 130.41 205.52 82.47 205.94 82.47"/><polygon class="uuid-a88c0ab7-997b-4782-a688-cb162eee71fc" points="206.36 82.47 256 130.41 255.58 130.41 205.94 82.47 206.36 82.47"/><polygon class="uuid-6ddf7b7a-3626-4ef6-a193-04426f0e162f" points="206.78 82.47 256.42 130.41 256 130.41 206.36 82.47 206.78 82.47"/><polygon class="uuid-bece95cc-231f-4a12-bfa9-3d0f4fc95c80" points="207.2 82.47 256.84 130.41 256.42 130.41 206.78 82.47 207.2 82.47"/><polygon class="uuid-b5c135fd-59cd-464f-b9e4-a166355d1ea6" points="207.62 82.47 257.26 130.41 256.84 130.41 207.2 82.47 207.62 82.47"/><polygon class="uuid-cdf2421a-17df-45c2-9016-5fe85e3dc5a8" points="208.04 82.47 257.68 130.41 257.26 130.41 207.62 82.47 208.04 82.47"/><polygon class="uuid-93cbfad7-dad1-4c5f-91b1-4b611e2a26dc" points="208.46 82.47 258.1 130.41 257.68 130.41 208.04 82.47 208.46 82.47"/><polygon class="uuid-4afb9bb8-e3b9-4e5c-ae56-d64b90fc505e" points="208.89 82.47 258.52 130.41 258.1 130.41 208.46 82.47 208.89 82.47"/><polygon class="uuid-65246233-2eb8-4398-8401-031b6b37fad5" points="209.31 82.47 258.94 130.41 258.52 130.41 208.89 82.47 209.31 82.47"/><polygon class="uuid-8f1185ff-4a7c-4be6-a8ec-60186b39ca7d" points="209.73 82.47 259.36 130.41 258.94 130.41 209.31 82.47 209.73 82.47"/><polygon class="uuid-4776539c-551c-4908-a871-a8cbb24e5095" points="210.15 82.47 259.78 130.41 259.36 130.41 209.73 82.47 210.15 82.47"/><polygon class="uuid-209c880b-87de-48d6-a39d-561b3572712d" points="210.57 82.47 260.21 130.41 259.78 130.41 210.15 82.47 210.57 82.47"/><polygon class="uuid-e544d604-b8cb-4ceb-9b4b-8f54b1eabdab" points="210.99 82.47 260.63 130.41 260.21 130.41 210.57 82.47 210.99 82.47"/><polygon class="uuid-d08719aa-5be0-46ef-945b-8c16dc096e31" points="211.41 82.47 261.05 130.41 260.63 130.41 210.99 82.47 211.41 82.47"/><polygon class="uuid-c604fd02-e04f-4120-ae19-ca3c5b7c73f0" points="211.83 82.47 261.47 130.41 261.05 130.41 211.41 82.47 211.83 82.47"/><polygon class="uuid-825ecedd-c3ac-477f-9d15-506cef30e9e5" points="212.25 82.47 261.89 130.41 261.47 130.41 211.83 82.47 212.25 82.47"/><polygon class="uuid-9a5421f8-90b3-4beb-9cbb-784696dd47fb" points="212.67 82.47 262.31 130.41 261.89 130.41 212.25 82.47 212.67 82.47"/><polygon class="uuid-3b330940-2db5-46fb-a1ab-2a68677545bb" points="213.09 82.47 262.73 130.41 262.31 130.41 212.67 82.47 213.09 82.47"/><polygon class="uuid-758b6593-1bbd-49d8-9e97-bb21b8bf319c" points="213.51 82.47 263.15 130.41 262.73 130.41 213.09 82.47 213.51 82.47"/><polygon class="uuid-00e3caa7-2a76-4f3f-bd49-0cc61c1456be" points="213.93 82.47 263.57 130.41 263.15 130.41 213.51 82.47 213.93 82.47"/><polygon class="uuid-341af395-4649-427d-9bb2-28518e276c31" points="214.35 82.47 263.99 130.41 263.57 130.41 213.93 82.47 214.35 82.47"/><polygon class="uuid-c028a14a-0374-464e-91c2-4e2627255a02" points="214.77 82.47 264.41 130.41 263.99 130.41 214.35 82.47 214.77 82.47"/><polygon class="uuid-dbe9d63d-eadd-41ac-9d99-8186e339ba6a" points="215.19 82.47 264.83 130.41 264.41 130.41 214.77 82.47 215.19 82.47"/><polygon class="uuid-417b2dd8-9846-44e7-bec6-90be1e1a714b" points="215.61 82.47 265.25 130.41 264.83 130.41 215.19 82.47 215.61 82.47"/><polygon class="uuid-4500be4b-7e24-4d27-a405-d95e1bb6417c" points="216.04 82.47 265.67 130.41 265.25 130.41 215.61 82.47 216.04 82.47"/><polygon class="uuid-bc1d5ff0-e174-4c4d-a5f1-cdd7201a968d" points="216.46 82.47 266.09 130.41 265.67 130.41 216.04 82.47 216.46 82.47"/><polygon class="uuid-9715d44a-72f7-436f-bab6-29af1a183a72" points="216.88 82.47 266.51 130.41 266.09 130.41 216.46 82.47 216.88 82.47"/><polygon class="uuid-7d1b46ba-891f-4e24-a956-b18d5b606576" points="217.3 82.47 266.93 130.41 266.51 130.41 216.88 82.47 217.3 82.47"/><polygon class="uuid-83353bab-7c00-47cb-9795-da24412a9e1d" points="217.72 82.47 267.36 130.41 266.93 130.41 217.3 82.47 217.72 82.47"/><polygon class="uuid-3c82d769-47a2-4577-9291-8c252bd54963" points="218.14 82.47 267.78 130.41 267.36 130.41 217.72 82.47 218.14 82.47"/><polygon class="uuid-aaaf074f-fa9c-404d-b3c0-7e4966e1fec3" points="218.56 82.47 268.2 130.41 267.78 130.41 218.14 82.47 218.56 82.47"/><polygon class="uuid-b722da6a-5b3d-4ece-b8e4-ec9f68bc9831" points="218.98 82.47 268.62 130.41 268.2 130.41 218.56 82.47 218.98 82.47"/><polygon class="uuid-2f6a4339-0f3f-4838-a4a6-328303f43d58" points="219.4 82.47 269.04 130.41 268.62 130.41 218.98 82.47 219.4 82.47"/><polygon class="uuid-5b4d66dd-e6e6-4ac0-9981-b49641526679" points="219.82 82.47 269.46 130.41 269.04 130.41 219.4 82.47 219.82 82.47"/><polygon class="uuid-d5aa7fa3-6bd2-4b77-8e2c-06e331239d0d" points="220.24 82.47 269.88 130.41 269.46 130.41 219.82 82.47 220.24 82.47"/><polygon class="uuid-56f968c1-ea02-4ab9-a9a8-a7db8e7562db" points="220.66 82.47 270.3 130.41 269.88 130.41 220.24 82.47 220.66 82.47"/><polygon class="uuid-de65ba7e-034c-4b40-93f1-53fefa47a386" points="221.08 82.47 270.72 130.41 270.3 130.41 220.66 82.47 221.08 82.47"/><polygon class="uuid-afd43b24-f9d2-4e4c-8946-6658b0c20242" points="221.5 82.47 271.14 130.41 270.72 130.41 221.08 82.47 221.5 82.47"/><polygon class="uuid-8cc954dd-32b2-4c88-8650-aa2d0a9b8645" points="221.92 82.47 271.56 130.41 271.14 130.41 221.5 82.47 221.92 82.47"/><polygon class="uuid-290daa0b-0a6b-4cd3-9a1a-e49a54bbc878" points="222.34 82.47 271.98 130.41 271.56 130.41 221.92 82.47 222.34 82.47"/><polygon class="uuid-8bfffa59-8f0c-4c97-b1e3-8ce13f2f811e" points="222.76 82.47 272.4 130.41 271.98 130.41 222.34 82.47 222.76 82.47"/><polygon class="uuid-a012911f-f68d-407f-809f-6da620443489" points="223.18 82.47 272.82 130.41 272.4 130.41 222.76 82.47 223.18 82.47"/><polygon class="uuid-e3136f2a-1a6f-4063-98d9-cbe12c81be0a" points="223.61 82.47 273.24 130.41 272.82 130.41 223.18 82.47 223.61 82.47"/><polygon class="uuid-7c1dc3de-84e1-42b5-ab5c-84dfc3e5effe" points="224.03 82.47 273.66 130.41 273.24 130.41 223.61 82.47 224.03 82.47"/><polygon class="uuid-e1771a4a-4c3e-4b9c-8d4d-d7d79b850ac5" points="224.45 82.47 274.08 130.41 273.66 130.41 224.03 82.47 224.45 82.47"/><polygon class="uuid-b1dcba66-a554-4623-a04c-79e592a67987" points="224.87 82.47 274.5 130.41 274.08 130.41 224.45 82.47 224.87 82.47"/><polygon class="uuid-19ae3c0e-5493-4f71-9979-9e47ae10b212" points="225.29 82.47 274.93 130.41 274.5 130.41 224.87 82.47 225.29 82.47"/><polygon class="uuid-d683c027-6426-4b21-ac26-629700a3652a" points="225.71 82.47 275.35 130.41 274.93 130.41 225.29 82.47 225.71 82.47"/><polygon class="uuid-2dfac435-0b51-430e-897e-c6fbd423e97e" points="226.13 82.47 275.77 130.41 275.35 130.41 225.71 82.47 226.13 82.47"/><polygon class="uuid-6138c46b-f019-46c3-9ddf-2f757e73e60a" points="226.55 82.47 276.19 130.41 275.77 130.41 226.13 82.47 226.55 82.47"/><polygon class="uuid-32702d64-314a-4a5f-9a80-f0f8e9277180" points="226.97 82.47 276.35 130.17 276.35 130.41 276.19 130.41 226.55 82.47 226.97 82.47"/><polygon class="uuid-3fa8253a-eb45-4336-82eb-7d2d3e039cdb" points="227.39 82.47 276.35 129.76 276.35 130.17 226.97 82.47 227.39 82.47"/><polygon class="uuid-2ce95890-6ec9-4491-91a6-70859338d42b" points="227.81 82.47 276.35 129.35 276.35 129.76 227.39 82.47 227.81 82.47"/><polygon class="uuid-09fe4150-aa40-4a87-9fe6-b837bc52bc48" points="228.23 82.47 276.35 128.95 276.35 129.35 227.81 82.47 228.23 82.47"/><polygon class="uuid-8ddc08c9-2e1e-4863-b58f-99a799040458" points="228.65 82.47 276.35 128.54 276.35 128.95 228.23 82.47 228.65 82.47"/><polygon class="uuid-e4a4e6a9-e833-4877-b077-af0b4169f544" points="229.07 82.47 276.35 128.14 276.35 128.54 228.65 82.47 229.07 82.47"/><polygon class="uuid-5acc3c49-a184-4753-8c1f-2abd313e261c" points="229.49 82.47 276.35 127.73 276.35 128.14 229.07 82.47 229.49 82.47"/><polygon class="uuid-5acc3c49-a184-4753-8c1f-2abd313e261c" points="276.35 127.73 229.49 82.47 276.35 82.47 276.35 127.73"/></g><path class="uuid-f73e90ad-1edc-408e-865c-4b88703327d4" d="M316.66,19.9c9.26-.59,11.35,8.21,3.62,13.08.15,10.3.17,20.61.08,30.91-5,5-9.95,10.05-14.85,15.16l-.33.28c-1.06-.25-2.44-1.85-3.29-2.69,4.91-4.73,9.71-9.56,14.41-14.49l.04-29.13c-5.91-3.94-6.23-9.78.33-13.11Z"/><path class="uuid-42a79811-bed2-4abb-9318-efa03adda021" d="M317.5,23.54c1.54-.54,3.24.25,3.81,1.78.58,1.53-.18,3.24-1.7,3.85-1.01.4-2.16.23-3.01-.46-.85-.69-1.26-1.78-1.07-2.85.19-1.07.94-1.96,1.97-2.32Z"/><path class="uuid-fa974dea-9876-4be5-bf69-212afc10ef75" d="M426.67,75.06c16.43-2.57,5.68,23.34-4.32,8.37-11.13-.2-22.65-.06-33.81-.07l-5.02,5.1c-1.4,1.5-2.84,2.81-4.34,4.19l-4.75-.5,12.43-12.77c11.61-.22,23.82-.03,35.48-.04,1.36-2.24,2.1-3,4.33-4.29Z"/><path class="uuid-42a79811-bed2-4abb-9318-efa03adda021" d="M428.29,78.37c1.06-.19,2.14.21,2.83,1.04.69.83.87,1.97.49,2.97-.39,1.01-1.28,1.73-2.35,1.9-1.62.25-3.14-.85-3.4-2.47-.27-1.62.81-3.15,2.43-3.44Z"/><path class="uuid-f73e90ad-1edc-408e-865c-4b88703327d4" d="M303.47,260.37c.67-2.81-.37-8.85.96-13.19.83-.88.42-.69,1.53-.87.96.63.7.56,1.3,1.75-.02,2.64-.15,11.97.19,14.21-4.29,4.39-8.71,9.19-13.2,13.3,0,4.44.62,37.02-.29,38.25-1.35.31-1.68.18-3-.11-.17-.18-.35-.36-.52-.55-.39-10.6-.09-29.47-.17-39.3,4.04-4.01,9.62-9.28,13.22-13.48Z"/><path class="uuid-fa974dea-9876-4be5-bf69-212afc10ef75" d="M245.83,36.05c8.94-.67,11.59,8.33,3.91,12.95.02,5.23-.01,10.52.26,15.74,2.78,2.64,6.07,5.62,8.45,8.64.78.98.52,1.24.3,2.29l-1.47.76c-2.37-.42-9.35-8.3-11.51-10.56l-.02-16.52c-5.69-4.3-6.73-9.38.07-13.3Z"/><path class="uuid-42a79811-bed2-4abb-9318-efa03adda021" d="M246.37,39.75c1-.52,2.2-.44,3.12.2.92.64,1.41,1.74,1.28,2.85-.14,1.11-.88,2.06-1.93,2.46-1.5.57-3.19-.12-3.84-1.59-.66-1.47-.05-3.19,1.37-3.93Z"/><path class="uuid-f73e90ad-1edc-408e-865c-4b88703327d4" d="M325.31,274.53c4.33-.02,8.66-.06,12.99-.13.17,5.69.02,12.13.01,17.87l-13.05-.1c-.09-5.88-.07-11.76.05-17.64Z"/><g class="uuid-7c0c0a06-c11b-4a1c-9bde-72633b2fb955"><polygon class="uuid-7b63aea2-f3a9-4bcf-b23d-09038acbe836" points="276.26 74.59 270.22 75.11 270.22 74.59 276.26 74.59"/><polygon class="uuid-7b63aea2-f3a9-4bcf-b23d-09038acbe836" points="282.33 74.59 270.22 75.63 270.22 75.11 276.26 74.59 282.33 74.59"/><polygon class="uuid-b89e5340-d2a7-4c4c-9cb7-08e978eedde8" points="283.63 75 270.22 76.16 270.22 75.63 282.33 74.59 283.63 74.59 283.63 75"/><polygon class="uuid-9711b852-43b3-4150-b6e7-f2f68fb367b7" points="283.63 75.53 270.22 76.68 270.22 76.16 283.63 75 283.63 75.53"/><polygon class="uuid-48726ed0-882d-43ce-9141-0518038d60d5" points="283.63 76.05 270.22 77.2 270.22 76.68 283.63 75.53 283.63 76.05"/><polygon class="uuid-bb286ed5-7345-4644-bdd1-351d1fac5912" points="283.63 76.57 270.22 77.72 270.22 77.2 283.63 76.05 283.63 76.57"/><polygon class="uuid-cfb8b61d-63d1-46c6-a6ab-efe6fb7c0cf8" points="283.63 77.09 270.22 78.24 270.22 77.72 283.63 76.57 283.63 77.09"/><polygon class="uuid-e0806e6f-6b07-42ff-a784-129dfaa20ec6" points="283.63 77.61 270.22 78.76 270.22 78.24 283.63 77.09 283.63 77.61"/><polygon class="uuid-72d61d1d-da07-4289-a44b-89fb00f2205a" points="283.63 78.13 270.22 79.28 270.22 78.76 283.63 77.61 283.63 78.13"/><polygon class="uuid-5adf6323-41e1-4beb-9556-3e86384cf8d0" points="283.63 78.65 270.22 79.8 270.22 79.28 283.63 78.13 283.63 78.65"/><polygon class="uuid-e5682aea-6eb2-4411-8679-a4d3a2107920" points="283.63 79.17 270.22 80.32 270.22 79.8 283.63 78.65 283.63 79.17"/><polygon class="uuid-94aed4e9-b325-4fce-b0cd-c38fe1bb319c" points="283.63 79.69 270.22 80.85 270.22 80.32 283.63 79.17 283.63 79.69"/><polygon class="uuid-adb0f387-1f26-486b-8054-26002c981b17" points="283.63 80.22 270.22 81.37 270.22 80.85 283.63 79.69 283.63 80.22"/><polygon class="uuid-292592dc-af1d-4758-852d-22c9097f36f5" points="283.63 80.74 270.22 81.89 270.22 81.37 283.63 80.22 283.63 80.74"/><polygon class="uuid-53672e84-604f-4120-88a4-06a8746cdf13" points="283.63 81.26 270.22 82.41 270.22 81.89 283.63 80.74 283.63 81.26"/><polygon class="uuid-5595dcb3-b73b-4cd8-b404-5afbe167c611" points="283.63 81.78 270.22 82.93 270.22 82.41 283.63 81.26 283.63 81.78"/><polygon class="uuid-a061b247-3b59-495f-8647-3f096c2925c4" points="283.63 82.3 270.22 83.45 270.22 82.93 283.63 81.78 283.63 82.3"/><polygon class="uuid-cdce1937-7d0e-471a-8505-697fcaa69c70" points="283.63 82.82 270.22 83.97 270.22 83.45 283.63 82.3 283.63 82.82"/><polygon class="uuid-459254b7-f3a0-460c-8c08-f1ec009ebb0a" points="283.63 83.34 270.22 84.49 270.22 83.97 283.63 82.82 283.63 83.34"/><polygon class="uuid-6d9c274c-20e6-4237-ae08-12962ce596dc" points="283.63 83.86 270.22 85.02 270.22 84.49 283.63 83.34 283.63 83.86"/><polygon class="uuid-34267fe9-22bd-4229-9bdf-8e0b65b82805" points="283.63 84.38 270.22 85.54 270.22 85.02 283.63 83.86 283.63 84.38"/><polygon class="uuid-5d2b6b7a-ee08-4dfd-97dd-76a2609f31ed" points="283.63 84.91 270.22 86.06 270.22 85.54 283.63 84.38 283.63 84.91"/><polygon class="uuid-ec2c8886-86eb-46b0-97dc-5354dfa91a44" points="283.63 85.43 270.22 86.58 270.22 86.06 283.63 84.91 283.63 85.43"/><polygon class="uuid-472111bf-f85e-4a50-9746-812a6fbe58a0" points="283.63 85.95 270.22 87.1 270.22 86.58 283.63 85.43 283.63 85.95"/><polygon class="uuid-9d591d63-82c0-4e31-8b79-981ba66c53cc" points="283.63 86.47 270.22 87.62 270.22 87.1 283.63 85.95 283.63 86.47"/><polygon class="uuid-94e366c7-a66e-4cbd-91b0-6418ac78f6dc" points="283.63 86.99 270.22 88.14 270.22 87.62 283.63 86.47 283.63 86.99"/><polygon class="uuid-13b69499-483a-4dc6-add5-6f87930d3a73" points="283.63 87.51 270.22 88.66 270.22 88.14 283.63 86.99 283.63 87.51"/><polygon class="uuid-2faec3ff-2f8c-445f-9f83-b29e28fcbaeb" points="283.63 88.03 270.22 89.18 270.22 88.66 283.63 87.51 283.63 88.03"/><polygon class="uuid-c28c1459-bfbe-4b47-8378-cebd36dd4213" points="283.63 88.55 270.22 89.71 270.22 89.18 283.63 88.03 283.63 88.55"/><polygon class="uuid-998401ea-ec72-4577-a6a1-4aeacfc21ef0" points="283.63 89.07 270.22 90.23 270.22 89.71 283.63 88.55 283.63 89.07"/><polygon class="uuid-6c6928d0-5b2d-4b29-8200-f50f69f508fb" points="283.63 89.6 270.22 90.75 270.22 90.23 283.63 89.07 283.63 89.6"/><polygon class="uuid-9bdf7a95-9f64-4567-83cd-dce54851c865" points="283.63 90.12 270.22 91.27 270.22 90.75 283.63 89.6 283.63 90.12"/><polygon class="uuid-0ee2860d-c955-4d9c-aab4-169323798799" points="283.63 90.64 270.36 91.78 270.22 91.78 270.22 91.27 283.63 90.12 283.63 90.64"/><polygon class="uuid-0ee2860d-c955-4d9c-aab4-169323798799" points="270.36 91.78 283.63 90.64 283.63 91.78 270.36 91.78"/></g><path class="uuid-1dc2eca2-67e8-4c94-9a2a-72df8e2dcfb1" d="M290.24,209.01c1.35,0,2.83-.12,3.8.69.55,3.39.29,20.24.29,24.77-6.58,6.77-13.23,13.45-19.97,20.06l-.48.08c-1.17-.35-2.06-1.5-2.97-2.43,6.48-6.45,12.92-12.94,19.32-19.46-.07-7.9-.07-15.8,0-23.7Z"/><path class="uuid-1dc2eca2-67e8-4c94-9a2a-72df8e2dcfb1" d="M336.73,84.73c.82.48,1.53,2.52,2.02,3.57-4.64,5.26-14.91,14.4-18.55,19.51.06,6.84.19,14.47.02,21.39-.02.98-.26.99-.87,1.44-.95-.1-1.58-.23-2.52-.43-1.05-1.18-.62-21.05-.67-24.65,6.69-6.45,13.88-14.13,20.58-20.83Z"/><path class="uuid-fa974dea-9876-4be5-bf69-212afc10ef75" d="M303.32,245.71c-.07-8.24-.07-16.49-.02-24.73,0-3.19-1.41-12.65,3.02-12.35,1.67,2.09,1.11,9.5,1.13,12.49l.09,19.78c.02,3.92.59,18.04-.1,21.37-.34-2.25-.21-11.58-.19-14.21-.6-1.19-.34-1.11-1.3-1.75-1.11.18-.7-.02-1.53.87-1.33,4.34-.29,10.38-.96,13.19-.43-2.42-.17-11.77-.15-14.66Z"/><path class="uuid-f7df3171-661c-43dc-a0f4-d2263b9bf45e" d="M307.01,233.79c.13,4.74.32,9.53.24,14.27-.6-1.19-.34-1.11-1.3-1.75-1.11.18-.7-.02-1.53.87-1.33,4.34-.29,10.38-.96,13.19-.43-2.42-.17-11.77-.15-14.66.3-4.01.41-7.99.54-12.01.94-.23,2.15-.01,3.15.09Z"/><path class="uuid-f73e90ad-1edc-408e-865c-4b88703327d4" d="M303.42,55.14c0-3.18-.25-21.2.25-22.92.93-.5,1.82-.3,2.92-.23,1.58,1.3.95,21.48.82,24.88-4.29,4.33-8.61,8.78-12.95,13.05-1.31-1.29-1.59-1.57-2.53-3.13l11.49-11.64Z"/><path class="uuid-f73e90ad-1edc-408e-865c-4b88703327d4" d="M204.76,86.47c-.96,3.1-4.03,5.04-7.24,4.57-3.21-.47-5.59-3.21-5.62-6.45-.02-3.24,2.32-6.02,5.52-6.54,3.2-.52,6.3,1.37,7.31,4.45.42,1.29.43,2.68.03,3.97Z"/><path class="uuid-42a79811-bed2-4abb-9318-efa03adda021" d="M197.14,81.91c1.44-.72,3.2-.14,3.93,1.3.73,1.44.16,3.2-1.28,3.93-1.44.74-3.22.17-3.95-1.28-.73-1.45-.15-3.22,1.3-3.95Z"/><path class="uuid-f73e90ad-1edc-408e-865c-4b88703327d4" d="M382.25,271.43c2.25-.81,4.77-.33,6.56,1.26,1.79,1.59,2.57,4.04,2.02,6.37-.54,2.33-2.32,4.18-4.63,4.81-3.38.93-6.9-.98-7.96-4.33-1.06-3.35.71-6.93,4.01-8.12Z"/><path class="uuid-f73e90ad-1edc-408e-865c-4b88703327d4" d="M329.83,250.25c3.42-1.01,7.01.96,8,4.38.99,3.43-1,7-4.43,7.97-3.4.96-6.94-1.01-7.92-4.41-.98-3.4.96-6.95,4.35-7.95Z"/><path class="uuid-fa974dea-9876-4be5-bf69-212afc10ef75" d="M316.31,239.74c-.13-3.56-.52-29,.71-30.68,1.36-.42.79-.43,2.15.05.99,1.1,1.16,1.97,1.13,3.42-.12,6.12-.01,12.24-.05,18.36-.45.64-1.13,1.67-1.7,2.24,0,0-1.57.47-1.58.47-.27,1.51-.54,4.7-.67,6.13Z"/><path d="M46.33,161.68l.3-1.26c.48-2.1-.66-3.12-3.48-3.12H9.61c-2.58,0-3.6-1.2-3-3.72l.24-.96c.6-2.52,2.16-3.72,4.74-3.72h33.96c8.28,0,12.12,2.76,10.44,10.14l-.54,2.28c-.6,2.76-2.4,6.78-8.16,7.92,5.64,1.2,5.82,4.92,5.1,7.92l-.54,2.22c-1.74,7.14-6.9,10.32-15.18,10.32H4.63c-3.78,0-5.28-1.92-4.38-5.7l3.18-13.56c.9-3.72,3.24-5.64,7.02-5.64h31.02c2.82,0,4.38-1.02,4.86-3.12ZM43.21,177.88l.3-1.26c.54-2.28-.66-3.42-3.48-3.42H15.07c-2.28,0-3.66,1.26-4.14,3.6l-.18.9c-.48,2.34.3,3.6,2.58,3.6h24.96c2.82,0,4.38-1.14,4.92-3.42Z"/><path d="M78.19,155.5h11.4c11.46,0,15.48,5.16,12.96,15.6l-.72,3c-2.52,10.44-8.7,15.6-20.16,15.6h-11.4c-11.46,0-15.48-5.16-12.96-15.6l.72-3c2.52-10.44,8.7-15.6,20.16-15.6ZM67.03,171.04l-.78,3.18c-1.14,4.56.72,7.08,6.36,7.08h10.56c5.64,0,8.58-2.52,9.66-7.14l.72-3.12c1.08-4.62-.72-7.14-6.36-7.14h-10.56c-5.64,0-8.46,2.52-9.6,7.14Z"/><path d="M116.05,147.64h1.32c2.58,0,3.54,1.26,2.94,3.84l-2.7,11.7c2.88-4.38,8.28-7.68,14.88-7.68h5.34c11.46,0,15.36,5.1,12.96,15.54l-.72,3.12c-2.4,10.44-8.7,15.54-20.16,15.54h-5.34c-6.6,0-10.44-3.3-11.28-7.68l-.9,3.9c-.6,2.58-2.16,3.84-4.74,3.84h-1.32c-2.58,0-3.54-1.26-2.94-3.84l7.92-34.44c.6-2.58,2.16-3.84,4.74-3.84ZM116.41,170.98l-.72,3.24c-1.08,4.62.66,7.08,6.3,7.08h9.42c5.64,0,8.58-2.46,9.66-7.08l.72-3.24c1.08-4.62-.72-7.08-6.36-7.08h-9.42c-5.64,0-8.52,2.46-9.6,7.08Z"/><path d="M172.57,189.76h-1.32c-2.58,0-3.54-1.26-2.94-3.78l3.3-14.1c.84-3.66,3.12-5.52,6.84-5.52h30.6c2.82,0,4.74-1.26,5.22-3.72l.3-1.62c.48-2.46-.72-3.72-3.54-3.72h-32.16c-2.58,0-3.6-1.2-3-3.72l.24-.96c.6-2.52,2.16-3.72,4.74-3.72h32.76c8.28,0,11.88,4.02,10.08,11.64l-.6,2.58c-1.8,7.74-6.72,11.64-15.48,11.64h-23.58c-2.82,0-4.5,1.38-5.16,4.2l-1.56,6.96c-.6,2.58-2.16,3.84-4.74,3.84Z"/><path d="M253.69,189.7h-24.06c-5.46,0-8.46-2.7-7.2-8.16l.96-4.08c1.26-5.46,5.46-8.16,10.92-8.16h19.08c1.98,0,3.24-.6,3.66-2.46.66-2.94-2.22-2.94-5.64-2.94h-20.46c-2.58,0-3.54-1.26-2.94-3.84l.18-.72c.6-2.58,2.16-3.84,4.74-3.84h21.48c11.28,0,14.16,4.98,11.76,15.6l-2.64,11.4c-1.2,4.56-4.92,7.2-9.84,7.2ZM253.39,175.6h-18c-1.86,0-2.76.9-3.18,2.76l-.06.18c-.42,1.86.06,2.76,1.92,2.76h18c1.8,0,2.94-.9,3.36-2.7l.06-.3c.42-1.8-.3-2.7-2.1-2.7Z"/><path d="M284.77,181.36h7.92c2.58,0,3.54,1.26,2.94,3.84l-.12.72c-.6,2.58-2.16,3.84-4.74,3.84h-9.96c-9.48,0-13.08-4.68-10.92-14.16l5.16-22.26c.6-2.58,2.16-3.84,4.74-3.84h1.32c2.34,0,3.3,1.02,3.06,3.12-.24,2.04.42,2.88,2.34,2.88h11.76c2.58,0,3.54,1.14,3,3.54l-.18.72c-.54,2.34-2.04,3.54-4.62,3.54h-11.76c-1.98,0-3.12.96-3.6,2.88l-1.74,7.38c-1.2,5.22.18,7.8,5.4,7.8Z"/><path d="M326.53,163.9h-3.78c-7.8,0-10.74,5.04-12.84,14.16l-1.8,7.86c-.6,2.58-2.16,3.84-4.74,3.84h-1.32c-2.58,0-3.54-1.26-2.94-3.84l6.12-26.58c.6-2.58,2.16-3.84,4.74-3.84h1.32c2.58,0,3.54,1.26,2.94,3.84l-1.14,4.92c2.76-5.52,7.38-8.76,13.92-8.76h1.5c3.18,0,4.74,1.26,4.14,3.84l-.18.72c-.6,2.58-2.76,3.84-5.94,3.84Z"/><path d="M339.49,160.48h1.32c2.58,0,3.6,1.26,3,3.84l-4.98,21.6c-.6,2.58-2.16,3.84-4.74,3.84h-1.32c-2.58,0-3.54-1.26-2.94-3.84l4.98-21.6c.6-2.58,2.1-3.84,4.68-3.84ZM342.07,148.9h1.56c2.94,0,4.02,1.26,3.42,3.84l-.3,1.44c-.6,2.58-2.28,3.84-5.22,3.84h-1.56c-2.94,0-4.02-1.26-3.42-3.84l.3-1.44c.6-2.58,2.28-3.84,5.22-3.84Z"/><path d="M388.57,159.34l-.18.72c-.6,2.58-2.16,3.84-4.74,3.84h-18.66c-5.64,0-8.52,2.52-9.6,7.14l-.78,3.24c-1.02,4.56.72,7.08,6.36,7.08h18.66c2.58,0,3.54,1.26,2.94,3.84l-.12.72c-.6,2.58-2.16,3.84-4.74,3.84h-19.08c-11.46,0-15.36-5.16-12.96-15.6l.72-3.06c2.4-10.44,8.7-15.6,20.16-15.6h19.08c2.58,0,3.54,1.26,2.94,3.84Z"/><path d="M394.93,189.76h-6.54c-2.58,0-3.54-1.26-2.94-3.84l7.92-34.38c.6-2.58,2.16-3.84,4.74-3.84h1.32c2.58,0,3.54,1.26,2.94,3.84l-5.76,24.9c-.54,2.34.12,2.82,2.34,1.14l28.5-21.54c2.52-1.86,5.64-1.62,6.78.6l.54,1.02c.84,1.56.42,3.6-2.04,5.4l-10.74,7.86c-2.1,1.56-2.34,3.12-.78,4.56l7.02,6.66c1.68,1.62,2.28,4.32.36,6.24l-.84.84c-1.92,1.92-4.98,1.26-6.72-.3l-7.92-7.32c-1.56-1.44-3.36-1.32-5.46.3l-7.62,5.82c-1.86,1.38-3.06,2.04-5.1,2.04Z"/><path class="uuid-1dc2eca2-67e8-4c94-9a2a-72df8e2dcfb1" d="M450.37,184.12l6.9-29.64c.9-3.78,3.12-5.58,6.96-5.58h26.64c13.38,0,17.94,6.18,15.06,18.6l-.84,3.6c-2.88,12.42-10.26,18.6-23.64,18.6h-26.64c-3.84,0-5.34-1.8-4.44-5.58ZM464.59,161.5l-3.54,15.54c-.66,2.88.42,4.2,3.24,4.2h19.32c7.2,0,10.92-3.42,12.42-9.78l1.02-4.38c1.5-6.36-.78-9.78-7.98-9.78h-19.32c-2.82,0-4.5,1.32-5.16,4.2Z"/><path class="uuid-1dc2eca2-67e8-4c94-9a2a-72df8e2dcfb1" d="M510.61,181.3h35.22c2.58,0,3.6,1.2,3,3.72l-.24.96c-.6,2.52-2.16,3.72-4.74,3.72h-35.22c-2.82,0-3.9-1.38-3.24-4.08l.06-.24c.66-2.76,2.34-4.08,5.16-4.08ZM514.39,164.8h30.36c2.58,0,3.54,1.2,2.94,3.72l-.24.96c-.6,2.52-2.1,3.72-4.68,3.72h-30.36c-2.82,0-3.9-1.38-3.24-4.08l.06-.24c.66-2.7,2.34-4.08,5.16-4.08ZM518.05,148.9h35.22c2.58,0,3.54,1.2,2.94,3.72l-.24.96c-.6,2.52-2.1,3.72-4.68,3.72h-35.22c-2.82,0-3.9-1.38-3.24-4.08l.06-.24c.66-2.76,2.34-4.08,5.16-4.08Z"/><path class="uuid-1dc2eca2-67e8-4c94-9a2a-72df8e2dcfb1" d="M569.41,186.1l-10.2-32.16c-.84-2.58.06-4.32,2.52-5.1l.96-.3c2.34-.72,4.02.18,4.8,2.7l9.18,28.62c.48,1.5,2.16,1.62,3.48,0l23.4-29.46c1.8-2.22,3.84-2.76,6-1.32l.9.6c1.92,1.26,1.86,3.66-.18,6.24l-23.58,30.18c-2.04,2.58-4.26,3.66-7.08,3.66h-4.8c-2.82,0-4.62-1.2-5.4-3.66Z"/></g></svg>